<svg width="67" height="59" viewBox="0 0 67 59" fill="none" xmlns="http://www.w3.org/2000/svg">
<path d="M33.5 59C52.0015 59 67 45.7924 67 29.5C67 13.2076 52.0015 0 33.5 0C14.9985 0 0 13.2076 0 29.5C0 45.7924 14.9985 59 33.5 59Z" fill="#0A66C2"/>
<path d="M45.3493 39.9402H40.3767V33.0838C40.3767 31.4475 40.3374 29.3444 37.7856 29.3444C35.1946 29.3444 34.7955 31.1248 34.7955 32.9628V39.9402H29.8229V25.8355H34.5992V27.76H34.6646C35.332 26.6537 36.9547 25.4841 39.3756 25.4841C44.4137 25.4841 45.3428 28.4053 45.3428 32.2022L45.3493 39.9402ZM24.2155 23.9054C22.6125 23.9054 21.3301 22.7645 21.3301 21.3645C21.3301 19.9644 22.619 18.8235 24.2155 18.8235C25.812 18.8235 27.101 19.9644 27.101 21.3645C27.101 22.7645 25.8055 23.9054 24.2155 23.9054ZM26.7084 39.9402H21.7227V25.8355H26.7084V39.9402ZM47.8356 14.75H19.2298C17.8623 14.75 16.75 15.7007 16.75 16.8818V42.1758C16.75 43.3512 17.8558 44.3076 19.2298 44.3076H47.8291C49.1966 44.3076 50.3154 43.3569 50.3154 42.1758V16.8818C50.3154 15.7007 49.1966 14.75 47.8356 14.75Z" fill="white"/>
</svg>
