<svg width="67" height="59" viewBox="0 0 67 59" fill="none" xmlns="http://www.w3.org/2000/svg">
<path d="M67 29.2796C67 13.1089 52.0015 0 33.5 0C14.9985 0 0 13.1089 0 29.2796V29.7204C0 45.8911 14.9985 59 33.5 59C52.0015 59 67 45.8911 67 29.7204V29.2796Z" fill="white"/>
<path d="M16.4202 42.467H22.7128V29.1104L13.7234 23.2178V40.11C13.7234 41.4142 14.9325 42.467 16.4202 42.467Z" fill="#4285F4"/>
<path d="M44.2868 42.467H50.5794C52.0716 42.467 53.2761 41.4103 53.2761 40.11V23.2178L44.2868 29.1104" fill="#34A853"/>
<path d="M44.2868 18.8967V29.1106L53.2761 23.218V20.0752C53.2761 17.1603 49.4692 15.4986 46.8039 17.2467" fill="#FBBC04"/>
<path d="M22.7121 29.1104V18.8965L33.4993 25.9677L44.2865 18.8965V29.1104L33.4993 36.1816" fill="#EA4335"/>
<path d="M13.7234 20.0752V23.218L22.7128 29.1106V18.8967L20.1958 17.2467C17.526 15.4986 13.7234 17.1603 13.7234 20.0752Z" fill="#C5221F"/>
</svg>
