<svg width="67" height="59" viewBox="0 0 67 59" fill="none" xmlns="http://www.w3.org/2000/svg">
<path d="M33.5 59C52.0015 59 67 45.7924 67 29.5C67 13.2076 52.0015 0 33.5 0C14.9985 0 0 13.2076 0 29.5C0 45.7924 14.9985 59 33.5 59Z" fill="#3C5A99"/>
<path d="M35.6295 44.3785V30.9421H40.7722L41.5443 25.6817H35.6295V22.3341C35.6295 20.813 36.1071 19.7817 38.5803 19.7817H41.7144V15.0916C41.1714 15.0283 39.3001 14.8842 37.1213 14.8842C32.5739 14.8842 29.4594 17.3272 29.4594 21.8156V25.6874H24.3363V30.9479H29.4594V44.3785H35.6295Z" fill="white"/>
</svg>
