<svg width="61" height="59" viewBox="0 0 61 59" fill="none" xmlns="http://www.w3.org/2000/svg">
<path d="M20.2398 47.5067C20.2398 47.7507 19.9592 47.9459 19.6054 47.9459C19.2028 47.9825 18.9222 47.7873 18.9222 47.5067C18.9222 47.2627 19.2028 47.0675 19.5566 47.0675C19.9226 47.0309 20.2398 47.2261 20.2398 47.5067ZM16.4456 46.9577C16.3602 47.2017 16.6042 47.4823 16.9702 47.5555C17.2874 47.6775 17.6534 47.5555 17.7266 47.3115C17.7998 47.0675 17.568 46.7869 17.202 46.6771C16.8848 46.5917 16.531 46.7137 16.4456 46.9577ZM21.838 46.7503C21.4842 46.8357 21.2402 47.0675 21.2768 47.3481C21.3134 47.5921 21.6306 47.7507 21.9966 47.6653C22.3504 47.5799 22.5944 47.3481 22.5578 47.1041C22.5212 46.8723 22.1918 46.7137 21.838 46.7503ZM29.8655 0C12.9442 0 0 12.8466 0 29.7679C0 43.2977 8.51558 54.8755 20.679 58.9503C22.2406 59.2309 22.7896 58.2671 22.7896 57.4741C22.7896 56.7177 22.753 52.5453 22.753 49.9833C22.753 49.9833 14.213 51.8133 12.4196 46.3477C12.4196 46.3477 11.0288 42.7975 9.02798 41.8825C9.02798 41.8825 6.23419 39.9671 9.22318 40.0037C9.22318 40.0037 12.261 40.2477 13.9324 43.1513C16.6042 47.8605 21.0816 46.5063 22.8262 45.7011C23.1068 43.7491 23.8998 42.3949 24.7782 41.5897C17.9584 40.8333 11.0776 39.8451 11.0776 28.1087C11.0776 24.7538 12.0048 23.0702 13.9568 20.923C13.6396 20.13 12.6026 16.8604 14.274 12.6392C16.8238 11.8462 22.692 15.9332 22.692 15.9332C25.132 15.25 27.7549 14.8962 30.3535 14.8962C32.9521 14.8962 35.5751 15.25 38.0151 15.9332C38.0151 15.9332 43.8833 11.834 46.4331 12.6392C48.1045 16.8726 47.0675 20.13 46.7503 20.923C48.7023 23.0824 49.8979 24.766 49.8979 28.1087C49.8979 39.8817 42.7121 40.8211 35.8923 41.5897C37.0147 42.5535 37.9663 44.3835 37.9663 47.2505C37.9663 51.3619 37.9297 56.4493 37.9297 57.4497C37.9297 58.2427 38.4909 59.2065 40.0403 58.9259C52.2403 54.8755 60.5119 43.2977 60.5119 29.7679C60.5119 12.8466 46.7869 0 29.8655 0ZM11.8584 42.0777C11.6998 42.1997 11.7364 42.4803 11.9438 42.7121C12.139 42.9073 12.4196 42.9927 12.5782 42.8341C12.7368 42.7121 12.7002 42.4315 12.4928 42.1997C12.2976 42.0045 12.017 41.9191 11.8584 42.0777ZM10.5408 41.0895C10.4554 41.2481 10.5774 41.4433 10.8214 41.5653C11.0166 41.6873 11.2606 41.6507 11.346 41.4799C11.4314 41.3213 11.3094 41.1261 11.0654 41.0041C10.8214 40.9309 10.6262 40.9675 10.5408 41.0895ZM14.4936 45.4327C14.2984 45.5913 14.3716 45.9573 14.6522 46.1891C14.9328 46.4697 15.2866 46.5063 15.4452 46.3111C15.6038 46.1525 15.5306 45.7865 15.2866 45.5547C15.0182 45.2741 14.6522 45.2375 14.4936 45.4327ZM13.1028 43.6393C12.9076 43.7613 12.9076 44.0785 13.1028 44.3591C13.298 44.6397 13.6274 44.7617 13.786 44.6397C13.9812 44.4811 13.9812 44.1639 13.786 43.8833C13.6152 43.6027 13.298 43.4807 13.1028 43.6393Z" fill="black"/>
</svg>
